<?xml version="1.0" encoding="utf-8"?>
<!-- Generator: Adobe Illustrator 27.5.0, SVG Export Plug-In . SVG Version: 6.00 Build 0)  -->
<svg version="1.1" xmlns="http://www.w3.org/2000/svg" xmlns:xlink="http://www.w3.org/1999/xlink" x="0px" y="0px"
	 viewBox="0 0 500 500" style="enable-background:new 0 0 500 500;" xml:space="preserve">
<g id="BACKGROUND">
	<rect style="fill:#FFFFFF;" width="500" height="500"/>
</g>
<g id="OBJECTS">
	<g>
		<circle style="fill:#F5EEE2;" cx="155.538" cy="161.432" r="66.683"/>
		<g>
			<path style="fill:#839934;" d="M156.684,227.79c36.225,0,65.59-24.949,65.59-55.723H91.094
				C91.094,202.841,120.459,227.79,156.684,227.79z"/>
			<g>
				<path style="fill:#839934;" d="M174.73,176.671l5.451-39.843l-14.284,4.134c0,0,3.759-13.156,14.284-9.585l-19.922-9.773
					c0,0,13.908-12.591,26.688,2.82c0,0-3.195-36.648,28.755-31.574l-19.734,30.822c0,0,7.518-7.517,15.599-3.947l-9.961,4.699
					c0,0,14.472-3.759,17.854,15.035l-18.982-6.058c0,0,8.269,7.562,2.819,15.267l-7.518-8.457l-14.095,36.46H174.73z"/>
				<path style="fill:#FFFFFF;" d="M184.785,139.036c0,0.701-0.568,1.269-1.268,1.269c-0.701,0-1.268-0.568-1.268-1.269
					c0-0.701,0.568-1.268,1.268-1.268C184.217,137.768,184.785,138.335,184.785,139.036z"/>
				<path style="fill:#FFFFFF;" d="M192.88,141.004c0,0.701-0.568,1.269-1.268,1.269c-0.701,0-1.269-0.568-1.269-1.269
					c0-0.701,0.568-1.268,1.269-1.268C192.312,139.736,192.88,140.303,192.88,141.004z"/>
				<path style="fill:#FFFFFF;" d="M186.1,139.736c0,0,0.004,0.553,0.057,1.34c0.033,0.39,0.08,0.849,0.22,1.264
					c0.074,0.199,0.176,0.39,0.302,0.478c0.114,0.096,0.277,0.141,0.457,0.103c0.163-0.006,0.207-0.055,0.27-0.075
					c0.069-0.035,0.162-0.099,0.238-0.163c0.149-0.149,0.307-0.313,0.421-0.514c0.245-0.388,0.426-0.809,0.576-1.173
					c0.29-0.735,0.465-1.259,0.465-1.259s0.078,0.55-0.049,1.371c-0.031,0.205-0.071,0.429-0.142,0.66
					c-0.066,0.232-0.143,0.48-0.273,0.724c-0.117,0.245-0.278,0.5-0.504,0.722c-0.121,0.108-0.244,0.209-0.409,0.296
					c-0.183,0.085-0.383,0.153-0.493,0.155c-0.347,0.059-0.754-0.046-1.031-0.299c-0.294-0.248-0.384-0.572-0.463-0.844
					c-0.122-0.56-0.077-1.053-0.015-1.465C185.856,140.234,186.1,139.736,186.1,139.736z"/>
			</g>
			<g>
				<path style="fill:#839934;" d="M125.302,179.114l-14.283-67.282l-14.095,15.223c0,0-6.202-15.787,11.088-21.425l-43.038-3.007
					c0,0,10.9-29.319,46.233-9.209L88.842,41.167c0,0,43.414-4.511,36.46,40.97c0,0,6.766-19.358,27.439-19.733l-18.418,27.251
					c0,0,24.808-19.17,37.4,14.095l-34.017-1.128c0,0,11.276,1.879,11.276,12.968l-13.72-5.512l-2.009,67.445L125.302,179.114z"/>
				<path style="fill:#FFFFFF;" d="M118.349,111.936c0,1.375-1.115,2.49-2.49,2.49c-1.375,0-2.49-1.115-2.49-2.49
					c0-1.376,1.115-2.49,2.49-2.49C117.234,109.446,118.349,110.56,118.349,111.936z"/>
				<path style="fill:#FFFFFF;" d="M132.87,110.079c0,1.375-1.115,2.49-2.49,2.49s-2.49-1.115-2.49-2.49
					c0-1.375,1.115-2.49,2.49-2.49S132.87,108.704,132.87,110.079z"/>
				<g>
					<path style="fill:#FFFFFF;" d="M121.583,111.256l4.193-0.309c0,0,0.359,6.837-0.838,6.957
						C123.739,118.024,121.583,111.256,121.583,111.256z"/>
					<polygon style="fill:#839934;" points="121.982,113.555 124.613,113.774 121.982,114.213 					"/>
				</g>
			</g>
			<g>
				
					<text transform="matrix(1 0 0 1 125.6748 189.7696)" style="fill:#FFFFFF; font-family:'LeagueSpartan-Bold'; font-size:14.3967px;">PALM OIL</text>
				
					<text transform="matrix(1 0 0 1 131.707 215.7394)" style="fill:#FFC91D; font-family:'LeagueSpartan-Bold'; font-size:23.3378px;">FREE</text>
			</g>
		</g>
	</g>
	<g>
		
			<rect x="383.262" y="179.667" style="fill:none;stroke:#844921;stroke-width:0.6718;stroke-miterlimit:10;" width="0" height="0.84"/>
		<g>
			<g>
				
					<text transform="matrix(1 0 0 1 292.2002 176.9824)" style="fill:#839934; font-family:'LeagueSpartan-Bold'; font-size:24.2609px;">PALM OIL</text>
				
					<text transform="matrix(1 0 0 1 290.5273 224.7471)" style="fill:#FFC91D; font-family:'LeagueSpartan-Bold'; font-size:50.3899px;">FREE</text>
			</g>
			<g>
				<g>
					<path style="fill:#FFC91D;" d="M365.81,150.9l3.659-26.766l-9.595,2.778c0,0,2.525-8.838,9.595-6.44l-13.382-6.565
						c0,0,9.344-8.459,17.928,1.894c0,0-2.146-24.62,19.318-21.211l-13.257,20.706c0,0,5.049-5.05,10.479-2.651l-6.691,3.157
						c0,0,9.722-2.525,11.994,10.1l-12.752-4.07c0,0,5.556,5.081,1.893,10.257l-5.049-5.681l-9.47,24.494H365.81z"/>
					<path style="fill:#FFFFFF;" d="M372.563,125.617c0,0.47-0.381,0.852-0.852,0.852c-0.471,0-0.853-0.381-0.853-0.852
						c0-0.471,0.382-0.853,0.853-0.853C372.183,124.765,372.563,125.146,372.563,125.617z"/>
					<path style="fill:#FFFFFF;" d="M378.002,126.939c0,0.47-0.383,0.852-0.852,0.852c-0.472,0-0.854-0.381-0.854-0.852
						c0-0.471,0.382-0.852,0.854-0.852C377.619,126.087,378.002,126.468,378.002,126.939z"/>
					<path style="fill:#FFFFFF;" d="M373.447,126.087c0,0,0.001,0.371,0.037,0.9c0.022,0.262,0.054,0.57,0.149,0.849
						c0.049,0.132,0.117,0.261,0.202,0.32c0.077,0.066,0.186,0.096,0.308,0.071c0.109-0.004,0.14-0.037,0.181-0.05
						c0.047-0.024,0.109-0.067,0.16-0.11c0.1-0.1,0.205-0.211,0.282-0.346c0.165-0.26,0.286-0.543,0.388-0.788
						c0.195-0.492,0.312-0.845,0.312-0.845s0.051,0.369-0.033,0.922c-0.021,0.138-0.048,0.288-0.096,0.444
						c-0.044,0.156-0.096,0.322-0.183,0.485c-0.079,0.165-0.187,0.336-0.339,0.486c-0.081,0.072-0.164,0.14-0.274,0.199
						c-0.124,0.058-0.258,0.103-0.331,0.105c-0.232,0.038-0.507-0.033-0.693-0.202c-0.197-0.167-0.258-0.384-0.311-0.567
						c-0.083-0.377-0.052-0.708-0.011-0.984C373.283,126.421,373.447,126.087,373.447,126.087z"/>
				</g>
				<g>
					<path style="fill:#FFC91D;" d="M332.603,152.541l-9.595-45.2l-9.468,10.226c0,0-4.168-10.605,7.448-14.393l-28.913-2.02
						c0,0,7.324-19.695,31.06-6.186L308.11,59.87c0,0,29.165-3.03,24.493,27.523c0,0,4.546-13.004,18.434-13.257l-12.373,18.307
						c0,0,16.666-12.878,25.124,9.469l-22.852-0.758c0,0,7.575,1.262,7.575,8.712l-9.215-3.703l-1.351,45.308L332.603,152.541z"/>
					<path style="fill:#FFFFFF;" d="M327.932,107.411c0,0.924-0.75,1.672-1.672,1.672c-0.924,0-1.673-0.748-1.673-1.672
						c0-0.924,0.748-1.673,1.673-1.673C327.182,105.738,327.932,106.487,327.932,107.411z"/>
					<path style="fill:#FFFFFF;" d="M337.687,106.164c0,0.923-0.749,1.673-1.673,1.673c-0.924,0-1.673-0.75-1.673-1.673
						c0-0.924,0.748-1.673,1.673-1.673C336.938,104.491,337.687,105.24,337.687,106.164z"/>
					<g>
						<path style="fill:#FFFFFF;" d="M330.106,106.955l2.816-0.208c0,0,0.241,4.593-0.563,4.673
							C331.553,111.501,330.106,106.955,330.106,106.955z"/>
						<polygon style="fill:#FFC91D;" points="330.373,108.499 332.141,108.647 330.373,108.941 						"/>
					</g>
				</g>
				<path style="fill:#FFC91D;" d="M398.842,153.528H290.641c-3.447,0-4.67-5.465-4.67-10.144V60.712
					c0-4.68,1.223-10.145,4.67-10.145h108.201c3.448,0,4.67,5.465,4.67,10.145v82.671
					C403.512,148.064,402.29,153.528,398.842,153.528z M291.1,149.488h107.284c0.444-0.719,1.089-2.883,1.089-6.104V60.712
					c0-3.222-0.645-5.385-1.09-6.104H291.1c-0.445,0.719-1.089,2.882-1.089,6.104v82.671
					C290.011,146.605,290.656,148.768,291.1,149.488z"/>
			</g>
		</g>
	</g>
	<g>
		<g>
			<path style="fill:#FFC91D;" d="M192.498,300.104c-3.312-4.733-7.434-8.855-12.166-12.167c-7.965-5.574-17.645-8.859-28.083-8.859
				c-27.078,0-49.107,22.03-49.107,49.107c0,10.439,3.284,20.118,8.858,28.083c3.312,4.733,7.434,8.855,12.166,12.167
				c7.965,5.574,17.645,8.857,28.083,8.857c27.077,0,49.106-22.03,49.106-49.107C201.355,317.749,198.072,308.068,192.498,300.104z
				 M111.745,328.186c0-22.333,18.171-40.504,40.505-40.504c8.06,0,15.571,2.375,21.887,6.451l-55.941,55.941
				C114.121,343.757,111.745,336.246,111.745,328.186z M152.249,368.689c-8.06,0-15.57-2.375-21.887-6.449l55.941-55.941
				c4.074,6.317,6.45,13.827,6.45,21.887C192.753,350.521,174.583,368.689,152.249,368.689z"/>
			<g>
				<g>
					<path style="fill:#839934;" d="M153.543,291.123c0,0-27.675,37.833-25.189,50.664c2.485,12.831,12.765,17.595,25.189,17.727
						c12.428-0.132,22.706-4.896,25.192-17.727C181.219,328.956,153.543,291.123,153.543,291.123z"/>
				</g>
				<path style="fill:#FFFFFF;" d="M145.416,338.016c0,1.868-1.516,3.386-3.386,3.386c-1.87,0-3.386-1.518-3.386-3.386
					c0-1.872,1.516-3.387,3.386-3.387C143.901,334.629,145.416,336.144,145.416,338.016z"/>
				<path style="fill:#FFFFFF;" d="M168.442,338.016c0,1.868-1.517,3.386-3.387,3.386c-1.87,0-3.386-1.518-3.386-3.386
					c0-1.872,1.516-3.387,3.386-3.387C166.925,334.629,168.442,336.144,168.442,338.016z"/>
				<g>
					<path style="fill:#FFFFFF;" d="M150.452,336.576l6.942,0.762c0,0-1.185,11.004-3.471,11.132
						C151.639,348.597,150.452,336.576,150.452,336.576z"/>
					<g>
						<polygon style="fill:#839934;" points="151.302,344.587 150.873,344.564 151.381,334.829 151.81,334.852 						"/>
					</g>
					<g>
						<polygon style="fill:#839934;" points="152.699,348.487 152.27,348.453 153.329,335.67 153.758,335.704 						"/>
					</g>
					<g>
						<polygon style="fill:#839934;" points="154.666,349.189 154.624,335.688 155.054,335.686 155.096,349.187 						"/>
					</g>
					<g>
						<polygon style="fill:#839934;" points="156.46,345.638 156.206,334.845 156.636,334.836 156.89,345.629 						"/>
					</g>
				</g>
				<path style="fill:#9DAE5F;" d="M175.385,348.28c-1.732,3.022-4.124,4.906-5.339,4.209c-1.216-0.697-0.799-3.713,0.933-6.735
					c1.733-3.021,4.124-4.905,5.341-4.207C177.535,342.245,177.117,345.26,175.385,348.28z"/>
			</g>
		</g>
		<g>
			
				<text transform="matrix(1 0 0 1 109.1162 430.0576)" style="fill:#FFC91D; font-family:'LeagueSpartan-Bold'; font-size:58.3665px;">NO</text>
			
				<text transform="matrix(1 0 0 1 110.2222 452.1084)" style="fill:#839934; font-family:'LeagueSpartan-Bold'; font-size:19.5161px;">PALM OIL</text>
		</g>
	</g>
	<g>
		
			<ellipse transform="matrix(0.7071 -0.7071 0.7071 0.7071 -121.7009 355.7159)" style="fill:#F5EEE2;" cx="368.537" cy="324.764" rx="49.199" ry="49.199"/>
		<g>
			<path style="fill:#839934;" d="M345.886,448.941c38.146,0,69.069-23.819,69.069-53.2H276.816
				C276.816,425.123,307.739,448.941,345.886,448.941z"/>
			<g>
				<path style="fill:#839934;" d="M340.425,407.243l9.967-72.866l-26.12,7.56c0,0,6.873-24.059,26.12-17.528l-36.432-17.872
					c0,0,25.434-23.028,48.806,5.156c0,0-5.843-67.023,52.586-57.744l-36.089,56.368c0,0,13.748-13.748,28.528-7.217l-18.217,8.593
					c0,0,26.465-6.875,32.652,27.495l-34.714-11.08c0,0,15.122,13.829,5.156,27.922l-13.749-15.468l-25.778,66.68H340.425z"/>
				<path style="fill:#FFFFFF;" d="M358.813,338.416c0,1.281-1.038,2.319-2.32,2.319c-1.281,0-2.32-1.038-2.32-2.319
					s1.039-2.32,2.32-2.32C357.775,336.096,358.813,337.135,358.813,338.416z"/>
				<path style="fill:#FFFFFF;" d="M373.617,342.014c0,1.282-1.038,2.319-2.32,2.319c-1.282,0-2.319-1.037-2.319-2.319
					c0-1.282,1.038-2.321,2.319-2.321C372.579,339.693,373.617,340.733,373.617,342.014z"/>
				<path style="fill:#FFFFFF;" d="M361.219,339.693c0,0,0.007,1.012,0.103,2.453c0.061,0.711,0.147,1.551,0.403,2.311
					c0.133,0.363,0.322,0.714,0.552,0.874c0.21,0.176,0.507,0.259,0.836,0.188c0.299-0.01,0.378-0.099,0.493-0.137
					c0.128-0.063,0.298-0.183,0.436-0.298c0.272-0.272,0.56-0.572,0.771-0.94c0.448-0.71,0.777-1.48,1.053-2.146
					c0.531-1.345,0.852-2.305,0.852-2.305s0.143,1.008-0.09,2.51c-0.055,0.376-0.129,0.784-0.259,1.207
					c-0.118,0.426-0.262,0.878-0.501,1.324c-0.215,0.449-0.508,0.914-0.921,1.321c-0.22,0.197-0.448,0.381-0.749,0.543
					c-0.332,0.155-0.7,0.279-0.901,0.281c-0.634,0.108-1.378-0.084-1.885-0.546c-0.537-0.452-0.702-1.046-0.846-1.542
					c-0.223-1.024-0.139-1.926-0.028-2.68C360.772,340.608,361.219,339.693,361.219,339.693z"/>
			</g>
			<g>
				<g>
					<path style="fill:#FFC91D;" d="M299.001,327.512c0,0-17.948,35.242-14.148,45.592c3.801,10.352,13.005,12.932,23.371,11.368
						c10.332-1.786,18.25-7.139,18.59-18.162C327.154,355.289,299.001,327.512,299.001,327.512z"/>
				</g>
				<path style="fill:#FFFFFF;" d="M298.556,367.663c0.252,1.557-0.806,3.024-2.363,3.277s-3.025-0.807-3.277-2.363
					c-0.252-1.558,0.807-3.025,2.364-3.278C296.837,365.046,298.304,366.104,298.556,367.663z"/>
				<path style="fill:#FFFFFF;" d="M317.733,364.558c0.252,1.557-0.807,3.025-2.363,3.277c-1.557,0.252-3.025-0.807-3.277-2.363
					c-0.252-1.559,0.807-3.025,2.364-3.278C316.013,361.941,317.481,362.999,317.733,364.558z"/>
				<g>
					<path style="fill:#FFFFFF;" d="M302.556,365.785l5.885-0.302c0,0,0.496,9.325-1.39,9.74
						C305.165,375.636,302.556,365.785,302.556,365.785z"/>
					
						<rect x="303.538" y="364.161" transform="matrix(0.9942 -0.1073 0.1073 0.9942 -37.769 34.7221)" style="fill:#FFC91D;" width="0.363" height="8.225"/>
					
						<rect x="305.251" y="364.611" transform="matrix(0.9969 -0.0785 0.0785 0.9969 -28.0921 25.1065)" style="fill:#FFC91D;" width="0.363" height="10.822"/>
					<polygon style="fill:#FFC91D;" points="307.767,375.722 305.911,364.483 306.269,364.423 308.125,375.662 					"/>
					
						<rect x="307.945" y="363.457" transform="matrix(0.9831 -0.183 0.183 0.9831 -62.1332 62.5903)" style="fill:#FFC91D;" width="0.363" height="9.109"/>
				</g>
				<path style="fill:#FFD44A;" d="M324.899,372.171c-1.035,2.75-2.772,4.642-3.879,4.224c-1.107-0.417-1.165-2.985-0.13-5.735
					c1.035-2.75,2.773-4.641,3.88-4.225C325.876,366.853,325.935,369.421,324.899,372.171z"/>
			</g>
			<g>
				
					<text transform="matrix(1 0 0 1 323.6309 427.3799)" style="fill:#FFC91D; font-family:'LeagueSpartan-Bold'; font-size:28.7297px;">NO</text>
				
					<text transform="matrix(1 0 0 1 324.1973 439.1924)" style="fill:#FFFFFF; font-family:'LeagueSpartan-Bold'; font-size:9.6802px;">PALM OIL</text>
			</g>
		</g>
	</g>
</g>
</svg>
