<svg width="487" height="258" viewBox="0 0 487 258" fill="none" xmlns="http://www.w3.org/2000/svg">
<path fill-rule="evenodd" clip-rule="evenodd" d="M486.184 270.149C486.184 281.389 477.072 290.5 465.833 290.5H201.272C190.032 290.5 180.921 281.389 180.921 270.149V253.868C180.921 242.629 171.809 233.518 160.57 233.518H21.1663C9.92683 233.518 0.81543 224.406 0.81543 213.167V164.325C0.81543 153.085 9.92683 143.974 21.1663 143.974H166.675C177.915 143.974 187.026 134.862 187.026 123.623V110.395C187.026 99.1553 177.915 90.0439 166.675 90.0439H100.535C89.2952 90.0439 80.1838 80.9325 80.1838 69.693V20.8509C80.1838 9.61138 89.2952 0.5 100.535 0.5H223.658C234.897 0.5 244.008 9.6114 244.008 20.8509V56.4649C244.008 67.7044 253.12 76.8158 264.359 76.8158H282.675C293.915 76.8158 303.026 85.9272 303.026 97.1667V131.763C303.026 143.003 293.915 152.114 282.675 152.114H230.78C219.541 152.114 210.429 161.225 210.429 172.465V180.605C210.429 191.845 219.541 200.956 230.78 200.956H465.833C477.072 200.956 486.184 210.068 486.184 221.307V270.149Z" fill="#F7F7F7"/>
</svg>
